<svg width="28" height="29" viewBox="0 0 28 29" fill="none" xmlns="http://www.w3.org/2000/svg">
<g filter="url(#filter0_d_501_202)">
<path d="M23 4H4V6H6.3L9.582 15.025C9.79362 15.6029 10.1773 16.1021 10.6813 16.4552C11.1854 16.8083 11.7856 16.9985 12.401 17H21V15H12.401C11.982 15 11.604 14.735 11.461 14.342L10.973 13H20.246C21.136 13 21.926 12.402 22.169 11.549L23.962 5.275C24.0039 5.12615 24.0109 4.96962 23.9823 4.81763C23.9537 4.66565 23.8904 4.52234 23.7973 4.39889C23.7041 4.27544 23.5837 4.1752 23.4454 4.106C23.3071 4.0368 23.1546 4.00053 23 4ZM20.246 11H10.246L8.428 6H21.675L20.246 11Z" fill="white"/>
<path d="M12.5 21C13.3284 21 14 20.3284 14 19.5C14 18.6716 13.3284 18 12.5 18C11.6716 18 11 18.6716 11 19.5C11 20.3284 11.6716 21 12.5 21Z" fill="white"/>
<path d="M18.5 21C19.3284 21 20 20.3284 20 19.5C20 18.6716 19.3284 18 18.5 18C17.6716 18 17 18.6716 17 19.5C17 20.3284 17.6716 21 18.5 21Z" fill="white"/>
<path d="M23 4H4V6H6.3L9.582 15.025C9.79362 15.6029 10.1773 16.1021 10.6813 16.4552C11.1854 16.8083 11.7856 16.9985 12.401 17H21V15H12.401C11.982 15 11.604 14.735 11.461 14.342L10.973 13H20.246C21.136 13 21.926 12.402 22.169 11.549L23.962 5.275C24.0039 5.12615 24.0109 4.96962 23.9823 4.81763C23.9537 4.66565 23.8904 4.52234 23.7973 4.39889C23.7041 4.27544 23.5837 4.1752 23.4454 4.106C23.3071 4.0368 23.1546 4.00053 23 4ZM20.246 11H10.246L8.428 6H21.675L20.246 11Z" fill="white"/>
<path d="M12.5 21C13.3284 21 14 20.3284 14 19.5C14 18.6716 13.3284 18 12.5 18C11.6716 18 11 18.6716 11 19.5C11 20.3284 11.6716 21 12.5 21Z" fill="white"/>
<path d="M18.5 21C19.3284 21 20 20.3284 20 19.5C20 18.6716 19.3284 18 18.5 18C17.6716 18 17 18.6716 17 19.5C17 20.3284 17.6716 21 18.5 21Z" fill="white"/>
</g>
<defs>
<filter id="filter0_d_501_202" x="-2" y="0" width="32" height="32" filterUnits="userSpaceOnUse" color-interpolation-filters="sRGB">
<feFlood flood-opacity="0" result="BackgroundImageFix"/>
<feColorMatrix in="SourceAlpha" type="matrix" values="0 0 0 0 0 0 0 0 0 0 0 0 0 0 0 0 0 0 127 0" result="hardAlpha"/>
<feOffset dy="4"/>
<feGaussianBlur stdDeviation="2"/>
<feComposite in2="hardAlpha" operator="out"/>
<feColorMatrix type="matrix" values="0 0 0 0 0 0 0 0 0 0 0 0 0 0 0 0 0 0 0.25 0"/>
<feBlend mode="normal" in2="BackgroundImageFix" result="effect1_dropShadow_501_202"/>
<feBlend mode="normal" in="SourceGraphic" in2="effect1_dropShadow_501_202" result="shape"/>
</filter>
</defs>
</svg>
